<svg width="457" height="284" viewBox="0 0 457 284" fill="none" xmlns="http://www.w3.org/2000/svg">
<path d="M433.078 2.50314L438.15 0C443.011 1.33501 455.775 6.00754 467.948 14.0176C476.189 18.5233 475.555 19.0239 485.066 29.0364C494.576 39.049 485.066 37.0465 490.771 42.5534C496.477 48.0603 495.209 64.0804 499.013 74.093C502.817 84.1056 503.452 87.61 503.452 98.1232V125.658C503.452 149.187 505.354 144.181 503.452 187.736C501.55 231.29 495.21 235.796 485.066 264.832C474.922 293.869 475.556 267.836 416.594 278.85H336.711H220.691C155.389 278.85 134.468 282.855 107.206 283.856C79.9441 284.858 64.0943 280.352 55.8524 278.85C49.2589 277.649 39.1572 269.004 34.9306 264.832C31.338 261.996 23.5187 255.921 20.9827 254.319C17.8128 252.317 11.4728 250.314 11.4728 247.811C11.4728 245.809 4.28757 242.638 0.694946 241.303C0.272278 236.964 -0.319458 227.686 0.694946 225.283C1.96292 222.279 4.4989 221.278 11.4728 212.266C14.6428 210.264 21.6168 206.259 29.2247 200.752C35.311 196.346 31.7607 196.58 29.2247 197.248L34.9306 190.739C40.8478 185.233 53.3164 173.918 55.8524 172.717C59.0223 171.215 58.3883 171.716 59.6563 171.215C60.9243 170.714 60.9243 170.214 64.0943 168.211C67.2641 166.209 67.2643 166.209 69.166 165.208L69.1662 165.207C71.0682 164.206 70.4342 164.206 71.0682 163.705C71.7022 163.205 72.9702 162.204 74.2382 161.703C75.5061 161.202 75.5062 160.702 76.1402 159.7C76.6474 158.899 77.1968 157.698 77.4081 157.197V146.684V144.181C77.4081 143.18 78.6761 141.678 79.3101 140.677C79.9441 139.675 79.9441 139.675 81.2121 139.175L85.0161 137.673C86.284 137.172 87.552 138.173 89.454 139.175C91.356 140.176 90.722 140.176 95.1599 140.677C99.5979 141.177 98.3299 140.677 100.232 140.677C102.134 140.677 105.304 139.175 107.206 139.175C109.108 139.175 111.01 138.173 112.912 137.673C114.814 137.172 114.814 137.673 115.448 138.173C116.082 138.674 117.35 138.173 119.886 139.175C121.914 139.976 121.154 138.841 120.52 138.173L122.422 137.673C124.535 137.005 129.015 135.67 130.03 135.67H134.467C137.003 135.67 137.004 135.17 140.173 134.669C143.343 134.168 143.343 134.168 145.245 134.168C147.147 134.168 148.415 134.669 150.317 134.669C152.219 134.669 153.487 134.669 155.389 134.168C157.291 133.668 157.925 133.668 159.193 133.167C160.461 132.667 161.729 131.165 162.997 130.664C164.265 130.163 163.631 129.162 164.265 128.661C164.899 128.161 166.167 128.161 169.337 127.66C172.507 127.16 171.873 127.16 172.507 126.659C173.141 126.158 175.677 126.158 177.579 125.658C179.481 125.157 178.847 125.157 179.481 124.156C180.115 123.155 179.481 123.655 177.579 122.654C175.677 121.653 176.945 121.152 176.945 119.15C176.945 117.147 176.945 117.147 177.579 116.146C178.213 115.145 178.213 114.644 179.481 113.643C180.749 112.641 181.383 112.141 183.285 111.64C185.187 111.14 185.821 111.64 187.089 111.64H190.259C191.527 111.64 193.429 111.64 197.867 112.141C202.305 112.641 201.037 112.641 202.305 113.643C203.319 114.444 203.573 113.976 203.573 113.643L205.475 112.641L206.109 110.639L209.279 108.136V105.633L211.181 102.128C210.969 101.294 210.673 99.3247 211.181 98.1232C211.815 96.6213 212.449 95.62 212.449 94.1181C212.449 92.6163 214.351 90.1131 216.253 87.61C218.155 85.1068 217.521 85.6075 220.691 82.6037C223.861 79.5999 223.861 79.0993 225.129 77.0968C226.397 75.0943 227.665 75.5949 230.834 74.093C234.004 72.5911 234.638 71.5899 238.442 70.5886C242.246 69.5873 242.88 68.5861 246.684 67.5848C249.727 66.7838 250.488 66.2498 250.488 66.0829C252.39 65.4154 257.462 64.0804 262.534 64.0804H272.678C277.75 64.0804 284.09 62.0779 289.796 62.0779H303.11H314.522C319.594 62.0779 320.862 64.0804 327.201 64.0804H336.711C337.345 63.0792 337.979 62.0779 337.979 60.0754V55.0691C337.979 53.0666 339.881 51.5647 344.953 47.5598L344.953 47.5597C347.489 45.5572 347.489 44.0553 348.757 42.5534C350.025 41.0515 350.659 41.0515 353.195 39.5496C355.731 38.0478 355.731 38.0478 356.999 37.0466L356.999 37.0465C358.267 36.0452 361.437 35.5446 369.045 29.0364V25.0314C369.045 23.0289 368.411 22.0277 369.045 19.0239C369.679 16.0201 369.679 16.0201 370.947 14.0176C371.961 12.4156 373.906 11.3476 374.751 11.0138C375.596 10.5132 377.921 9.51194 380.457 9.51194H388.065H392.503C394.405 9.51194 396.307 7.50943 397.575 7.50943H399.477L403.281 5.50691H410.255C407.085 4.00503 414.059 5.50691 416.594 5.50691H421.666H423.568H425.47L428.006 4.00503H429.908L433.078 2.50314Z" fill="url(#paint0_linear)"/>
<defs>
<linearGradient id="paint0_linear" x1="252.216" y1="0" x2="252.216" y2="284" gradientUnits="userSpaceOnUse">
<stop stop-color="white"/>
<stop offset="0.854167" stop-color="white" stop-opacity="0"/>
</linearGradient>
</defs>
</svg>
