<svg width="411" height="139" viewBox="0 0 411 139" fill="none" xmlns="http://www.w3.org/2000/svg">
<path d="M390.783 0L393.318 1.9993C396.065 3.99859 402.191 8.29708 404.726 9.49666C407.895 10.9961 411.064 14.4949 416.134 18.4935C421.204 22.4921 416.134 21.9923 418.669 36.987C421.204 51.9817 416.134 41.9852 418.669 68.9757C421.204 95.9662 419.303 78.9722 416.134 107.962C412.965 136.952 411.064 118.958 404.726 121.957C398.389 124.956 396.487 123.457 393.318 123.956C390.15 124.456 376.841 126.456 360.996 128.955C345.152 131.454 346.42 129.454 330.576 130.954C314.732 132.453 309.661 131.954 283.677 132.953C257.693 133.953 261.495 132.953 248.82 135.952C236.145 138.951 221.568 135.952 201.921 137.452C182.275 138.951 179.74 138.951 161.994 138.951C144.249 138.951 127.137 138.451 103.688 138.951C80.2385 139.451 58.0567 135.952 39.0438 135.952C20.0309 135.952 16.862 136.952 11.1581 135.952C5.45425 134.953 -1.51715 123.457 0.384125 121.957C2.28543 120.458 5.45425 117.959 7.98932 115.459C10.5244 112.96 16.862 104.463 16.862 102.964C16.862 101.464 21.9321 92.4675 23.1997 89.9684C24.2137 87.9691 25.7347 85.4699 26.3685 84.4703C28.0585 82.471 31.9456 78.2725 33.9737 77.4727L33.9739 77.4727C36.5089 76.473 39.0439 75.4734 42.2126 73.974C45.3814 72.4745 47.2827 72.4745 53.6204 68.9757C53.6204 67.4763 54.8879 62.478 56.1555 60.4787C57.423 58.4794 58.6905 54.4808 60.5918 52.4815C62.4931 50.4822 63.1269 50.4822 65.0282 50.4822H73.2671C75.1684 50.4822 77.7035 52.4815 89.745 56.4801C95.4489 57.4798 96.0826 57.9796 97.9839 57.9796H106.223H115.096H120.799C122.701 57.9796 126.503 59.9789 134.109 57.9796C134.109 56.4801 136.01 52.4815 139.179 50.4822C142.347 48.4829 142.981 45.484 145.516 47.4833C148.051 49.4826 153.121 48.9828 155.023 50.4822C156.924 51.9817 156.924 52.4815 161.994 52.4815C162.628 50.9821 164.529 49.4826 166.431 45.484C168.332 41.4854 170.233 41.4854 170.233 39.9859C170.233 38.4865 177.205 35.4875 181.641 33.4882C186.077 31.4889 186.711 30.4893 190.514 27.4903C194.316 24.4914 196.851 25.491 201.921 21.9923C206.992 18.4935 210.794 21.9923 214.597 21.9923H224.737C228.54 21.9923 234.877 23.4917 238.68 25.491C242.482 27.4903 244.384 25.491 250.721 27.4903C257.059 29.4896 255.791 30.4893 257.693 30.4893C259.594 30.4893 260.862 33.4882 264.03 36.987C267.199 40.4858 271.002 37.4868 271.636 35.4875C272.269 33.4882 274.171 32.4886 276.072 30.4893C277.973 28.49 281.142 26.9905 283.677 25.491C286.212 23.9916 286.846 22.4921 290.015 20.4928C293.184 18.4935 295.085 16.994 296.352 16.4942C297.62 15.9944 303.958 14.9947 309.661 11.9958C310.675 10.7962 311.774 8.83023 312.197 7.99719C312.619 7.33075 313.718 5.79796 314.732 4.99824C315.746 4.19852 320.647 1.33286 322.971 0H325.506H330.576H340.082H343.885H346.42H350.222C351.279 0.666432 354.278 2.29919 357.828 3.49877C359.349 4.69835 360.574 3.99859 360.996 3.49877V1.9993H362.898H367.968H373.038L376.841 0H384.446H390.783Z" fill="url(#paint0_linear)"/>
<defs>
<linearGradient id="paint0_linear" x1="209.954" y1="0" x2="209.954" y2="139" gradientUnits="userSpaceOnUse">
<stop stop-color="white"/>
<stop offset="1" stop-color="white" stop-opacity="0"/>
</linearGradient>
</defs>
</svg>
