<svg width="506" height="417" viewBox="0 0 506 417" fill="none" xmlns="http://www.w3.org/2000/svg">
<path d="M479.713 0.033816H511.639L580 376.69C521.605 388.862 401.388 413.906 387.678 416.707C373.967 419.508 129.767 401.534 9.37988 392.197C8.32202 391.03 5.69843 388.095 3.6673 385.694C1.12842 382.693 3.6673 380.692 1.12842 376.69C-1.41052 372.689 1.12842 369.187 1.12842 364.185C1.12842 359.183 1.76312 357.182 3.6673 348.179C5.57153 339.175 7.47571 339.175 9.37988 333.172C11.2841 327.17 12.5535 327.67 15.7272 322.168C18.9008 316.665 18.2661 316.665 18.9008 313.664C19.5356 310.663 21.4397 308.662 22.7092 305.661C23.7247 303.26 24.8249 302.66 25.248 302.66C26.306 301.993 28.8026 300.459 30.3259 299.658C32.2301 298.658 35.4037 296.157 37.9426 294.156C40.4816 292.155 41.1163 292.155 44.9247 290.154C48.733 288.154 52.5414 283.151 55.715 281.151C58.8887 279.15 60.7928 278.65 63.9665 277.149C67.1401 275.648 68.4095 275.148 70.3138 274.148C72.2179 273.147 75.3916 272.647 79.1999 272.147C83.0083 271.647 83.0083 270.146 85.5472 270.146H89.9903C91.8945 270.313 96.3376 270.546 98.8765 270.146C101.415 269.746 104.166 268.645 105.224 268.145L102.05 262.643V259.642C99.9344 258.475 95.7029 255.84 95.7029 254.64C95.7029 253.439 91.8945 250.805 89.9903 249.638V232.13C89.9903 228.129 89.3556 227.628 89.9903 222.126C90.625 216.624 92.5292 216.624 95.7029 213.122C98.2418 210.321 100.992 208.954 102.05 208.621C105.012 207.453 112.333 204.619 117.918 202.618C124.9 200.117 126.17 198.616 144.577 191.613C153.463 188.112 155.367 187.612 161.715 186.111C168.062 184.611 170.601 181.109 175.044 181.109H180.756L192.816 176.607V171.105L191.547 168.604C190.7 165.769 189.516 159.7 191.547 158.1C193.578 156.499 196.201 154.765 197.259 154.098C199.798 154.431 205.765 154.898 209.319 154.098C212.874 153.298 217.147 151.764 218.84 151.097C221.167 149.263 226.965 143.894 231.535 137.091V133.089C233.439 131.422 238.263 126.286 242.325 119.083V112.08V106.578C238.728 104.744 231.535 100.175 231.535 96.574V91.5719C236.189 90.7382 247.403 88.7707 255.019 87.5702C264.54 86.0696 260.097 85.5694 264.54 82.5681C268.983 79.5669 272.792 83.0683 279.139 82.5681C284.217 82.168 287.602 80.0671 288.66 79.0667C291.199 78.3997 296.911 76.6657 299.45 75.065C301.989 73.4643 306.009 70.3964 307.702 69.0625C310.029 67.8954 318.111 63.06 331.822 53.0559C334.995 49.0542 338.169 49.0542 341.342 49.0542H349.594C351.921 48.2205 358.988 45.8529 368.636 43.0517C371.809 41.5511 374.348 40.0505 379.426 36.0488C384.504 32.0471 383.869 32.5473 387.678 28.0455L394.025 20.5424C396.564 20.7091 402.276 20.9425 404.815 20.5424C407.989 20.0421 410.528 18.0413 420.049 10.038C423.222 7.03674 430.204 6.53652 434.013 3.03506C437.059 0.233899 438.667 -0.13292 439.09 0.033816C441.206 2.20138 446.072 6.53652 448.611 6.53652H453.689C459.825 4.36895 473.62 0.033816 479.713 0.033816Z" fill="url(#paint0_linear)"/>
<defs>
<linearGradient id="paint0_linear" x1="290" y1="0" x2="290" y2="417" gradientUnits="userSpaceOnUse">
<stop stop-color="white"/>
<stop offset="0.796875" stop-color="white" stop-opacity="0"/>
</linearGradient>
</defs>
</svg>
