<svg width="91" height="61" viewBox="0 0 91 61" fill="none" xmlns="http://www.w3.org/2000/svg">
<path d="M57.2604 0.618042C49.1613 0.618042 42.2339 6.02874 39.413 13.6909C37.3878 12.7956 35.14 12.3168 32.7805 12.3168C24.8268 12.3168 18.2067 17.9625 16.7591 25.447C15.7399 25.1933 14.6713 25.0653 13.5721 25.0653C6.41455 25.0653 0.617188 30.7847 0.617188 37.8329C0.617188 44.881 6.41455 50.6004 13.5721 50.6004C15.8228 50.6004 17.9467 50.0292 19.7911 49.0355C22.9748 52.2341 28.1478 54.3219 33.9864 54.3219C38.6891 54.3219 42.9501 52.9687 46.0971 50.7721C48.8016 53.6123 52.5865 55.3715 56.778 55.3715C62.2239 55.3715 66.9846 52.3935 69.5779 47.9477C71.3634 48.9539 73.3805 49.5317 75.5041 49.5317C82.9267 49.5317 88.9413 42.6279 88.9413 34.1114C88.9413 25.909 83.3567 19.2129 76.3137 18.7292C75.1209 8.51342 67.0422 0.618042 57.2604 0.618042Z" fill="white"/>
</svg>
