<svg width="91" height="61" viewBox="0 0 91 61" fill="none" xmlns="http://www.w3.org/2000/svg">
<path d="M33.7396 0.618042C41.8387 0.618042 48.7661 6.02874 51.587 13.6909C53.6122 12.7956 55.86 12.3168 58.2195 12.3168C66.1732 12.3168 72.7933 17.9625 74.2409 25.447C75.2601 25.1933 76.3287 25.0653 77.4279 25.0653C84.5854 25.0653 90.3828 30.7847 90.3828 37.8329C90.3828 44.881 84.5854 50.6004 77.4279 50.6004C75.1772 50.6004 73.0533 50.0292 71.2089 49.0355C68.0252 52.2341 62.8522 54.3219 57.0136 54.3219C52.3109 54.3219 48.0499 52.9687 44.9029 50.7721C42.1984 53.6123 38.4135 55.3715 34.222 55.3715C28.7761 55.3715 24.0154 52.3935 21.4221 47.9477C19.6366 48.9539 17.6195 49.5317 15.4959 49.5317C8.0733 49.5317 2.05866 42.6279 2.05866 34.1114C2.05866 25.909 7.64333 19.2129 14.6863 18.7292C15.8791 8.51342 23.9578 0.618042 33.7396 0.618042Z" fill="white"/>
</svg>
