<svg width="51" height="35" viewBox="0 0 51 35" fill="none" xmlns="http://www.w3.org/2000/svg">
<path d="M32.0908 0.354614C27.5518 0.354614 23.6693 3.45911 22.0884 7.85546C20.9534 7.34172 19.6936 7.06704 18.3713 7.06704C13.9137 7.06704 10.2035 10.3064 9.39228 14.6007C8.82109 14.4552 8.2222 14.3817 7.60614 14.3817C3.59478 14.3817 0.345703 17.6633 0.345703 21.7074C0.345703 25.7514 3.59478 29.033 7.60614 29.033C8.86753 29.033 10.0579 28.7053 11.0915 28.1351C12.8758 29.9704 15.775 31.1683 19.0471 31.1683C21.6827 31.1683 24.0708 30.3919 25.8345 29.1316C27.3502 30.7612 29.4714 31.7706 31.8205 31.7706C34.8726 31.7706 37.5406 30.0619 38.994 27.511C39.9947 28.0883 41.1251 28.4198 42.3153 28.4198C46.4752 28.4198 49.8461 24.4586 49.8461 19.5721C49.8461 14.8658 46.7162 11.0238 42.7691 10.7463C42.1005 4.88475 37.5729 0.354614 32.0908 0.354614Z" fill="white"/>
</svg>
