<svg width="51" height="35" viewBox="0 0 51 35" fill="none" xmlns="http://www.w3.org/2000/svg">
<path d="M18.9092 0.354614C23.4482 0.354614 27.3307 3.45911 28.9116 7.85546C30.0466 7.34172 31.3064 7.06704 32.6287 7.06704C37.0863 7.06704 40.7965 10.3064 41.6077 14.6007C42.1789 14.4552 42.7778 14.3817 43.3939 14.3817C47.4052 14.3817 50.6543 17.6633 50.6543 21.7074C50.6543 25.7514 47.4052 29.033 43.3939 29.033C42.1325 29.033 40.9421 28.7053 39.9085 28.1351C38.1242 29.9704 35.225 31.1683 31.9529 31.1683C29.3173 31.1683 26.9292 30.3919 25.1655 29.1316C23.6498 30.7612 21.5286 31.7706 19.1795 31.7706C16.1274 31.7706 13.4594 30.0619 12.006 27.511C11.0053 28.0883 9.87485 28.4198 8.68472 28.4198C4.52479 28.4198 1.15395 24.4586 1.15395 19.5721C1.15395 14.8658 4.28381 11.0238 8.23095 10.7463C8.89948 4.88475 13.4271 0.354614 18.9092 0.354614Z" fill="white"/>
</svg>
