<svg width="269" height="301" viewBox="0 0 269 301" fill="none" xmlns="http://www.w3.org/2000/svg">
<mask id="mask0" mask-type="alpha" maskUnits="userSpaceOnUse" x="0" y="0" width="269" height="301">
<rect width="269" height="301" fill="#C4C4C4"/>
</mask>
<g mask="url(#mask0)">
<path opacity="0.2" d="M204.356 245.399C191.793 263.148 184.326 268.959 164.252 275.717L188.233 278.033L241.066 351.952L197.376 271.088L204.356 245.399ZM232.607 84.9693C239.475 88.5017 242.533 92.0678 241.908 99.9258L231.658 220.306L317.354 340.186L208.841 402.836L142.145 287.315L77.7235 244.368C69.3795 238.856 65.7445 234.29 55.8606 217.17L112.732 233.486L133.88 200.617L171.06 243.963C154.775 193.551 160.203 153.929 185.391 120.56L165.368 107.795C138.812 150.618 104.231 123.599 108.691 117.192L152.036 53.8461C155.66 48.5881 158.729 46.9828 164.602 50.0898L232.607 84.9693ZM43.8545 171.286L111.914 193.139C116.195 194.499 109.188 221.87 105.267 221.135L38.7119 207.078C33.0179 205.867 38.7126 169.59 43.8545 171.286ZM125.148 151.176C129.127 152.877 117.292 188.034 113.798 186.886L40.6496 163.14C33.0714 160.684 47.424 116.909 52.9002 119.329L125.148 151.176ZM74.6299 67.7132L117.424 91.6567L103.735 113.222C100.255 118.73 103.013 126.968 117.301 141.045L52.9739 110.373C46.1782 106.966 68.478 64.2673 74.6299 67.7132ZM105.218 26.3942L145.778 50.7943L121.528 85.7883L81.2286 63.5702C74.6106 59.8936 98.8499 22.5734 105.218 26.3942Z" fill="#FF7614"/>
</g>
</svg>
