<svg width="407" height="662" viewBox="0 0 407 662" fill="none" xmlns="http://www.w3.org/2000/svg">
<path d="M217.988 419.987C183.492 435.861 167.125 438.129 130.866 430.822L165.111 455.263L180.47 613.184L185.003 452.743L217.988 419.987ZM400.792 202.031C408.094 213.37 409.605 221.433 401.799 232.772L281.189 405.877L306.117 662L87.3057 662L87.3057 429.058L27.3782 307.859C19.5725 292.237 18.0617 282.158 18.0617 247.638L89.8236 321.97L150.507 290.725L168.888 388.742C188.276 298.284 231.081 243.103 298.311 214.63L279.174 177.842C201.621 219.417 172.916 148.361 185.254 142.566L306.117 84.6121C316.188 79.8246 322.231 80.0766 328.401 89.9035L400.792 202.031ZM39.968 167.763L123.816 260.237C129.104 266.032 94.6078 301.308 89.32 296.773L0.939587 217.401C-6.61431 210.598 33.6731 160.708 39.968 167.763ZM180.47 208.33C185.003 214.378 136.406 257.213 132.125 252.426L42.2342 152.645C32.9177 142.314 92.8452 88.6436 99.0142 97.0847L180.47 208.33ZM176.945 37.9972L220.758 111.573L181.226 132.235C171.154 137.526 168.132 152.393 177.449 186.157L106.946 83.6042C99.6437 72.5174 170.65 27.4144 176.945 37.9972ZM259.282 2.21719L299.318 74.5332L232.088 106.282L190.542 37.4933C183.744 26.1545 252.988 -9.12156 259.282 2.21719Z" fill="url(#paint0_linear)"/>
<defs>
<linearGradient id="paint0_linear" x1="203.5" y1="4.32446e-05" x2="203.5" y2="662" gradientUnits="userSpaceOnUse">
<stop stop-color="white"/>
<stop offset="1" stop-color="white" stop-opacity="0"/>
</linearGradient>
</defs>
</svg>
