<svg width="146" height="147" viewBox="0 0 146 147" fill="none" xmlns="http://www.w3.org/2000/svg">
<path d="M88.1656 133.529H98.4707L88.2994 114.123C94.5227 112.316 98.4038 107.298 98.4038 100.673C98.4038 92.442 92.5152 86.0849 83.2807 86.0849H64.7447V133.529H74.0462V115.261H78.8642L88.1656 133.529ZM74.0462 107.298V94.1149H81.5408C86.225 94.1149 88.9686 96.7247 88.9686 100.74C88.9686 104.621 86.225 107.298 81.5408 107.298H74.0462Z" fill="white"/>
<path d="M114.059 146.243V130.317C115.665 132.525 119.011 134.332 123.562 134.332C132.863 134.332 139.086 126.971 139.086 117C139.086 107.231 133.532 99.8698 123.896 99.8698C118.944 99.8698 115.264 102.078 113.792 104.621V100.606H105.159V146.243H114.059ZM130.32 117.067C130.32 122.956 126.707 126.369 122.156 126.369C117.606 126.369 113.926 122.889 113.926 117.067C113.926 111.246 117.606 107.833 122.156 107.833C126.707 107.833 130.32 111.246 130.32 117.067Z" fill="white"/>
<path d="M31.2734 48.3622V11.8622H104.273V48.3622H104.213L104.273 48.423L79.9401 72.6955L84.2198 76.9752C83.9083 76.965 83.5953 76.9599 83.2811 76.9599H55.6201V133.529H31.2734V97.0897H31.3343L31.2734 97.0289L55.6068 72.6955L31.2734 48.423L31.3343 48.3622H31.2734Z" fill="white"/>
<path fill-rule="evenodd" clip-rule="evenodd" d="M64.7447 133.529H74.0462V115.261H78.8642L88.1656 133.529H98.4707L88.2994 114.123L88.4955 114.065C90.4954 113.458 92.2479 112.515 93.7006 111.292C94.4758 110.64 95.1657 109.907 95.7622 109.103C95.8554 108.977 95.9463 108.85 96.0349 108.721C97.5626 106.494 98.4038 103.758 98.4038 100.673L98.4041 100.606C98.3922 97.5325 97.5581 94.7228 96.0349 92.4109C95.4374 91.504 94.7338 90.6738 93.9322 89.9343C91.3262 87.53 87.6835 86.0849 83.2807 86.0849H64.7447V133.529ZM81.5408 107.298H74.0462V94.1149H81.5408C82.1138 94.1149 82.6581 94.154 83.1716 94.2299L83.2811 94.2467C85.1171 94.5394 86.555 95.3092 87.5257 96.4529C88.4669 97.5618 88.9686 99.0222 88.9686 100.74C88.9686 101.933 88.7095 103.013 88.2138 103.936C87.7115 104.871 86.9668 105.646 86.0038 106.214C85.6304 106.435 85.2242 106.625 84.7867 106.781C84.2883 106.959 83.7492 107.093 83.1716 107.18C82.6581 107.257 82.1138 107.298 81.5408 107.298Z" fill="white"/>
</svg>
