<svg width="146" height="146" viewBox="0 0 146 146" fill="none" xmlns="http://www.w3.org/2000/svg">
<path fill-rule="evenodd" clip-rule="evenodd" d="M48.666 12.1667H121.666C128.358 12.1667 133.833 17.6417 133.833 24.3333V97.3333C133.833 104.025 128.358 109.5 121.666 109.5H48.666C41.9743 109.5 36.4993 104.025 36.4993 97.3333V24.3333C36.4993 17.6417 41.9743 12.1667 48.666 12.1667ZM12.166 36.5H24.3327V121.667H109.499V133.833H24.3327C17.641 133.833 12.166 128.358 12.166 121.667V36.5ZM48.666 97.3333V24.3333H121.666V97.3333H48.666ZM109.499 54.75H60.8327V66.9167H109.499V54.75ZM60.8327 73H85.166V85.1667H60.8327V73ZM109.499 36.5H60.8327V48.6667H109.499V36.5Z" fill="white"/>
</svg>
